<?xml version="1.0" encoding="UTF-8" standalone="no"?>
<svg
   xmlns:dc="http://purl.org/dc/elements/1.1/"
   xmlns:cc="http://creativecommons.org/ns#"
   xmlns:rdf="http://www.w3.org/1999/02/22-rdf-syntax-ns#"
   xmlns:svg="http://www.w3.org/2000/svg"
   xmlns="http://www.w3.org/2000/svg"
   xmlns:sodipodi="http://sodipodi.sourceforge.net/DTD/sodipodi-0.dtd"
   xmlns:inkscape="http://www.inkscape.org/namespaces/inkscape"
   viewBox="0 0 24 24"
   style="pointer-events: none; display: block;"
   id="svg2"
   version="1.1"
   inkscape:version="0.48.5 r10040"
   width="100%"
   height="100%"
   sodipodi:docname="ic_action.svg"
   inkscape:export-filename="C:\Users\Paul\git\SynchronizedNotifications\design\ic_action.png"
   inkscape:export-xdpi="720"
   inkscape:export-ydpi="720">
  <metadata
     id="metadata17">
    <rdf:RDF>
      <cc:Work
         rdf:about="">
        <dc:format>image/svg+xml</dc:format>
        <dc:type
           rdf:resource="http://purl.org/dc/dcmitype/StillImage" />
        <dc:title></dc:title>
      </cc:Work>
    </rdf:RDF>
  </metadata>
  <defs
     id="defs15" />
  <sodipodi:namedview
     pagecolor="#ffffff"
     bordercolor="#666666"
     borderopacity="1"
     objecttolerance="10"
     gridtolerance="10"
     guidetolerance="10"
     inkscape:pageopacity="0"
     inkscape:pageshadow="2"
     inkscape:window-width="640"
     inkscape:window-height="480"
     id="namedview13"
     showgrid="false"
     inkscape:zoom="9.8333333"
     inkscape:cx="12"
     inkscape:cy="12"
     inkscape:window-x="492"
     inkscape:window-y="297"
     inkscape:window-maximized="0"
     inkscape:current-layer="svg2" />
  <g
     id="auto-fix"
     style="fill:#ffffff">
    <polygon
       points="7.5,5.6 10,7 8.6,4.5 10,2 7.5,3.4 5,2 6.4,4.5 5,7 "
       id="polygon5"
       style="fill:#ffffff" />
    <polygon
       points="19.5,15.4 17,14 18.4,16.5 17,19 19.5,17.6 22,19 20.6,16.5 22,14 "
       id="polygon7"
       style="fill:#ffffff" />
    <polygon
       points="22,2 19.5,3.4 17,2 18.4,4.5 17,7 19.5,5.6 22,7 20.6,4.5 "
       id="polygon9"
       style="fill:#ffffff" />
    <path
       d="M14.4,7.3c-0.4-0.4-1-0.4-1.4,0L1.3,19c-0.4,0.4-0.4,1,0,1.4l2.3,2.3c0.4,0.4,1,0.4,1.4,0L16.7,11c0.4-0.4,0.4-1,0-1.4L14.4,7.3z M13.3,12.8l-2.1-2.1l2.4-2.4l2.1,2.1L13.3,12.8z"
       id="path11"
       style="fill:#ffffff" />
  </g>
</svg>
