<?xml version="1.0" encoding="UTF-8" standalone="no"?>
<svg
   xmlns:dc="http://purl.org/dc/elements/1.1/"
   xmlns:cc="http://creativecommons.org/ns#"
   xmlns:rdf="http://www.w3.org/1999/02/22-rdf-syntax-ns#"
   xmlns:svg="http://www.w3.org/2000/svg"
   xmlns="http://www.w3.org/2000/svg"
   xmlns:xlink="http://www.w3.org/1999/xlink"
   xmlns:sodipodi="http://sodipodi.sourceforge.net/DTD/sodipodi-0.dtd"
   xmlns:inkscape="http://www.inkscape.org/namespaces/inkscape"
   viewBox="0 0 24 24"
   style="pointer-events: none; display: block;"
   id="svg2"
   version="1.1"
   inkscape:version="0.48.5 r10040"
   width="100%"
   height="100%"
   sodipodi:docname="ic_launcher.svg"
   inkscape:export-filename="C:\Users\Paul\git\SynchronizedNotifications\design\ic_launcher.png"
   inkscape:export-xdpi="3840"
   inkscape:export-ydpi="3840">
  <metadata
     id="metadata11">
    <rdf:RDF>
      <cc:Work
         rdf:about="">
        <dc:format>image/svg+xml</dc:format>
        <dc:type
           rdf:resource="http://purl.org/dc/dcmitype/StillImage" />
        <dc:title></dc:title>
      </cc:Work>
    </rdf:RDF>
  </metadata>
  <defs
     id="defs9">
    <linearGradient
       id="linearGradient3819">
      <stop
         style="stop-color:#ffeec5;stop-opacity:1;"
         offset="0"
         id="stop3821" />
      <stop
         style="stop-color:#ffbd17;stop-opacity:1;"
         offset="1"
         id="stop3823" />
    </linearGradient>
    <radialGradient
       inkscape:collect="always"
       xlink:href="#linearGradient3819"
       id="radialGradient3825"
       cx="12.85216"
       cy="2.9885538"
       fx="12.85216"
       fy="2.9885538"
       r="10"
       gradientUnits="userSpaceOnUse"
       gradientTransform="matrix(0,1.1902155,-1.1324666,-2.297179e-5,15.282743,-9.7543992)" />
    <radialGradient
       inkscape:collect="always"
       xlink:href="#linearGradient3819-0"
       id="radialGradient3825-6"
       cx="12.85216"
       cy="2.9885538"
       fx="12.85216"
       fy="2.9885538"
       r="10"
       gradientUnits="userSpaceOnUse"
       gradientTransform="matrix(0,1.1902155,-1.1324666,-2.297179e-5,15.282743,-9.7543992)" />
    <linearGradient
       id="linearGradient3819-0">
      <stop
         style="stop-color:#ffeec5;stop-opacity:1;"
         offset="0"
         id="stop3821-4" />
      <stop
         style="stop-color:#ffbd17;stop-opacity:1;"
         offset="1"
         id="stop3823-9" />
    </linearGradient>
    <radialGradient
       r="10"
       fy="2.9885538"
       fx="12.85216"
       cy="2.9885538"
       cx="12.85216"
       gradientTransform="matrix(0,1.1902155,-1.1324666,-2.297179e-5,13.282743,-11.754399)"
       gradientUnits="userSpaceOnUse"
       id="radialGradient3896"
       xlink:href="#linearGradient3819-0"
       inkscape:collect="always" />
  </defs>
  <sodipodi:namedview
     pagecolor="#ffffff"
     bordercolor="#666666"
     borderopacity="1"
     objecttolerance="10"
     gridtolerance="10"
     guidetolerance="10"
     inkscape:pageopacity="0"
     inkscape:pageshadow="2"
     inkscape:window-width="1501"
     inkscape:window-height="856"
     id="namedview7"
     showgrid="false"
     inkscape:zoom="13.906433"
     inkscape:cx="27.485755"
     inkscape:cy="12.626686"
     inkscape:window-x="140"
     inkscape:window-y="80"
     inkscape:window-maximized="0"
     inkscape:current-layer="svg2" />
  <path
     inkscape:connector-curvature="0"
     d="M 20,1.7457625 H 4 c -1.1,0 -2,0.9 -2,2 l 0,18.0000025 4,-4 h 14 c 1.1,0 2,-0.9 2,-2 V 3.7457625 c 0,-1.1 -0.9,-2 -2,-2 z"
     id="path3791-4"
     style="fill:#eeac06;fill-opacity:1;display:block" />
  <path
     d="M 20,2 H 4 C 2.9,2 2,2.9 2,4 l 0,18 4,-4 h 14 c 1.1,0 2,-0.9 2,-2 V 4 C 22,2.9 21.1,2 20,2 z"
     id="path3791"
     style="fill-opacity:1;fill:url(#radialGradient3825)" />
  <path
     style="fill:#eeac06;display:block;fill-opacity:1"
     id="path5-1-8"
     d="m 11.982376,15.387866 c 0.629354,0 1.144281,-0.514927 1.144281,-1.144281 h -2.288562 c 0,0.629354 0.514926,1.144281 1.144281,1.144281 z m 3.718913,-3.432843 V 8.8082485 c 0,-1.773635 -1.201495,-3.203986 -2.860703,-3.604484 v -0.400499 c 0,-0.457712 -0.400498,-0.858211 -0.85821,-0.858211 -0.457713,0 -0.858211,0.400499 -0.858211,0.858211 v 0.400499 c -1.6592071,0.400498 -2.8607022,1.830849 -2.8607022,3.604484 v 3.1467745 l -1.1442809,1.144281 v 0.57214 H 16.84557 v -0.57214 l -1.144281,-1.144281 z"
     inkscape:connector-curvature="0" />
  <path
     style="fill:#ffffff"
     id="path5-1"
     d="m 11.982376,15.642101 c 0.629354,0 1.144281,-0.514927 1.144281,-1.144281 h -2.288562 c 0,0.629354 0.514926,1.144281 1.144281,1.144281 z m 3.718913,-3.432843 V 9.062486 c 0,-1.773635 -1.201495,-3.203986 -2.860703,-3.604484 V 5.057503 c 0,-0.457712 -0.400498,-0.858211 -0.85821,-0.858211 -0.457713,0 -0.858211,0.400499 -0.858211,0.858211 V 5.458002 C 9.4649579,5.8585 8.2634628,7.288851 8.2634628,9.062486 v 3.146772 l -1.1442809,1.144281 v 0.57214 H 16.84557 v -0.57214 l -1.144281,-1.144281 z"
     inkscape:connector-curvature="0" />
</svg>
